<svg id="SvgjsSvg1001" width="256" height="256" xmlns="http://www.w3.org/2000/svg" version="1.1" xmlns:xlink="http://www.w3.org/1999/xlink" xmlns:svgjs="http://svgjs.com/svgjs"><defs id="SvgjsDefs1002"></defs><g id="SvgjsG1008"><svg xmlns="http://www.w3.org/2000/svg" enable-background="new 0 0 64 64" viewBox="0 0 64 64" width="256" height="256"><polygon fill="#e5e5e5" points="55.7 29.99 55.7 63.93 8.3 63.93 8.3 29.99 32 9.27" class="colore5e5e5 svgShape"></polygon><rect width="7.33" height="11.56" x="8.3" y="10" fill="#41acd8" class="color41acd8 svgShape"></rect><rect width="11.39" height="4.79" x="6.27" y="5.21" fill="#41acd8" class="color41acd8 svgShape"></rect><rect width="7.33" height="2.57" x="8.3" y="10" fill="#3582a8" class="color3582a8 svgShape"></rect><polygon fill="#c6c1c1" points="55.7 29.99 55.7 33.86 31.99 13.14 8.3 33.86 8.3 29.99 31.99 9.27 32 9.27" class="colorc6c1c1 svgShape"></polygon><polygon fill="#41acd8" points="64 29.09 32 .07 32 .07 32 .07 0 29.09 4.6 33.69 32 9.27 59.4 33.69" class="color41acd8 svgShape"></polygon><polygon fill="#59cbef" points="64 29.09 62.06 31.02 32 3.76 1.94 31.02 0 29.09 32 .07" class="color59cbef svgShape"></polygon><g fill="#000000" class="color000 svgShape"><rect width="15.57" height="28.63" x="13.76" y="35.3" fill="#445b69" class="color445b69 svgShape"></rect><rect width="15.57" height="3.46" x="13.76" y="35.3" fill="#364d59" class="color364d59 svgShape"></rect><rect width="15.79" height="15.79" x="34.44" y="35.3" fill="#445b69" class="color445b69 svgShape"></rect><rect width="15.79" height="2.85" x="34.44" y="35.3" fill="#364d59" class="color364d59 svgShape"></rect></g></svg></g></svg>